<?xml version="1.0" encoding="UTF-8" standalone="no"?>
<!-- Created with Inkscape (http://www.inkscape.org/) -->

<svg
   version="1.1"
   id="svg2"
   width="3728"
   height="3728"
   viewBox="0 0 3728 3728"
   sodipodi:docname="vecteezy_gun-icon-isolated-on-white-background-pistol-illustration_5863323.eps"
   xmlns:inkscape="http://www.inkscape.org/namespaces/inkscape"
   xmlns:sodipodi="http://sodipodi.sourceforge.net/DTD/sodipodi-0.dtd"
   xmlns="http://www.w3.org/2000/svg"
   xmlns:svg="http://www.w3.org/2000/svg">
  <defs
     id="defs6" />
  <sodipodi:namedview
     id="namedview4"
     pagecolor="#ffffff"
     bordercolor="#000000"
     borderopacity="0.25"
     inkscape:showpageshadow="2"
     inkscape:pageopacity="0.0"
     inkscape:pagecheckerboard="0"
     inkscape:deskcolor="#d1d1d1" />
  <g
     id="g8"
     inkscape:groupmode="layer"
     inkscape:label="ink_ext_XXXXXX"
     transform="matrix(1.3333333,0,0,-1.3333333,0,3728)">
    <g
       id="g10"
       transform="scale(0.1)">
      <path
         d="M 27960,0 H 0 V 27960 H 27960 V 0"
         style="fill:#f6f6f6;fill-opacity:1;fill-rule:nonzero;stroke:none"
         id="path12" />
      <path
         d="m 17247.9,14868.3 c -16,-158 -30.2,-288.1 -97.1,-447.9 -70.7,-169 -160.7,-276.6 -186.6,-306.6 -40.3,-46.8 -120,-137.5 -253.1,-215 -128.5,-74.7 -244.1,-100.7 -313.1,-115.6 -67,-14.5 -124.6,-20.9 -167,-24 -1299.1,-19.9 -2084.9,-36.3 -2293.3,-49.1 -27.1,-1.7 -134.4,-8.8 -277.2,0 -98.4,6.1 -198,12.8 -322.9,45.8 -50.1,13.3 -191.3,53.8 -353.5,150.6 -53.8,32.1 -154.6,93.1 -261.9,200.7 -27.3,27.4 -146.1,149.3 -244.4,349.2 -46.5,94.7 -135.7,281.2 -140.3,536.8 -2.4,132.9 19,232.6 32,290.9 4.5,20.2 10.8,48.1 20,81.8 4,14.7 20.5,22.1 34.1,15.2 14.7,-7.5 30.6,-15.4 47.7,-23.5 64.4,-30.6 118.1,-51.4 150.6,-63.3 46,-16.9 61.8,-20.4 182.2,-55.7 160.8,-47.1 161.7,-49.3 230.2,-67.6 49.2,-13.1 106.3,-27.3 170.4,-41.3 9.4,-2.1 16.8,-9.6 18.5,-19 6.5,-34.1 14.5,-62 21.3,-82.6 24.4,-74.7 57.3,-129.5 85.1,-175.3 19.8,-32.6 36.2,-56.2 42.2,-64.8 126.6,-181 189.9,-271.6 264.7,-356.7 137.7,-156.6 266.1,-253.3 364.4,-327.3 164.3,-123.7 287.2,-187.9 320.8,-205.2 59.4,-30.4 110.9,-53 148.9,-68.7 16.9,-8 44.8,-18.7 80.8,-21.3 21,-1.5 37,-2.6 55.6,4.9 45.2,18.3 58.9,68.4 60.6,74.8 1.4,5.6 6.4,26.7 1.1,52.9 -4.7,22.8 -15,37.7 -35.5,66.5 -9.6,13.6 -23,31.2 -40.4,50.6 -4,4.5 -6.3,10.2 -6.3,16.2 v 0 c 0,17.7 18.5,29.2 34.5,21.6 66.5,-31.4 122.8,-41.3 160,-44.7 42.9,-3.9 59.6,0.9 66.6,3.3 69.5,23.2 110.7,111.2 109.1,186.5 -0.9,39.8 -13.6,73 -26.9,97.1 -269.1,307.6 -538.1,615.3 -807.1,922.9 -3.1,3.4 -5,7.7 -5.7,12.2 -18,115.1 -27.8,221.5 -32.4,317.4 -6.5,135.2 -13.6,303.8 23.3,515 18.7,107.3 44.7,201.5 71.4,281.2 2.9,8.6 10.5,14.8 19.5,16.1 258.2,36.7 467.5,63.9 613.9,82.4 214,27 247.1,27.4 436.4,54.5 166.3,23.9 307.9,41.7 419,54.6 16.4,1.9 158.9,18.3 342.5,30.6 71.2,4.7 97.5,5.4 128.8,4.3 28.4,-1 129.6,-5.7 279.3,-52.4 73.3,-22.8 189,-59.6 314.2,-139.6 89.5,-57.2 298.1,-209.3 414.6,-480.1 76,-176.6 88.5,-347 96,-449.5 4.2,-56.6 4.7,-104 4.4,-137.4 20.5,-206.5 12.5,-378.6 0,-502.4 z m 7677.3,5711 c -9,31.5 -21.9,54.3 -27.7,64 -11.9,20 -30.9,50.9 -68.3,74.2 -12.1,7.5 -24.1,13 -35.6,17 -8.1,2.9 -14.2,9.6 -15.9,18 -6.8,33.7 -18.5,82.4 -38.7,138.8 -21.5,59.9 -33.8,93.3 -65.5,129.8 -46.6,53.8 -103,77 -123.3,85.2 -24.5,9.8 -46.2,15.1 -77.4,20.7 -38.9,7 -91.3,14.3 -156.3,17.4 h -54.6 c -7.1,0 -13.8,3.2 -18.4,8.6 l -317.2,377.7 c -17.9,21.2 -44.2,33.5 -71.9,33.5 h -225.5 c -40,0 -75.6,-25.3 -88.7,-63.1 l -118.3,-340.5 c -3.3,-9.7 -12.4,-16.2 -22.7,-16.2 H 5416.32 c -10.66,0 -20.05,7.1 -23.06,17.3 l -113.97,386.6 c -12.14,41.3 -50.08,69.6 -93.16,69.6 h -209.64 c -43.08,0 -81.02,-28.3 -93.16,-69.6 l -113.97,-386.6 c -3.01,-10.2 -12.4,-17.3 -23.06,-17.3 h -266.44 c -14.7,0 -29.31,-2.3 -43.25,-7 h -0.26 c -57.52,-18.8 -96.49,-47.9 -114.61,-62.8 -16.24,-13.4 -58.71,-50.7 -90.5,-113.5 -27.78,-54.6 -34.54,-102.9 -38.81,-138 l -0.18,-1.5 c -8.59,-71 -12.89,-142.4 -12.89,-214 v -1635.7 c 0.25,-1.4 0.77,-2.8 1.54,-4.4 1.28,-2 2.56,-3.4 4.27,-5.3 7.95,-8.7 16.92,-12.1 23.5,-14.5 3.22,-1.3 6.34,-2.2 9.3,-2.9 10.89,-2.6 18.31,-12.7 18.31,-23.9 v -9.7 c 0,-8.4 -4.34,-16.2 -11.54,-20.5 -3.38,-2 -6.96,-4.5 -10.6,-7.4 -12.3,-9.8 -18.89,-20.1 -22.39,-25.6 v 0 c -8.1,-12.9 -12.39,-27.8 -12.39,-42.9 v -51.1 c -7.01,-13.9 -13.85,-30 -19.66,-48.7 -10.34,-33.6 -13.25,-63.3 -13.76,-85 v -179 c -22.56,-27.2 -52.81,-65.5 -85.47,-113.8 -68.02,-100.5 -106.23,-184 -118.96,-212.7 -31.54,-71.5 -47.35,-107.3 -53.42,-146.3 -4.1,-26.3 -20.68,-151.4 56.75,-267.2 40.08,-60.2 88.29,-92 103.59,-101.6 22.73,-14.1 61.96,-38 118.96,-44.6 4.1,-0.6 11.97,-1.2 11.97,-1.2 14.53,-0.3 37.26,-1.3 69.82,-2.7 37.44,-1.5 163.93,-6.9 233.49,-14.2 167.86,-17.3 313.83,-77.6 386.22,-107.4 154.78,-63.9 261.27,-134.6 320.83,-174.6 67.18,-45.1 160.68,-108.7 264.01,-213.9 83.5,-84.9 135.54,-158.5 185.45,-229.1 44.62,-63 81.88,-122 112.56,-174.5 0,0 48.49,-85.7 70.75,-137.5 93.22,-217 117.31,-395.4 122.2,-434.2 5.97,-47.5 18.45,-166 -6.55,-408.1 -23.17,-224.3 -65.87,-432.2 -130.92,-665.5 -72.79,-261.1 -142.36,-442.1 -250.95,-722.3 -69.41,-179.1 -177.68,-456.9 -346.94,-813.9 -98.51,-207.8 -204.71,-430.4 -370.96,-711.4 -136.35,-230.4 -162.12,-245 -325.13,-506.2 -155.38,-249 -262.81,-448.7 -471.33,-837.9 -228.23,-426.1 -342.35,-639.1 -456.06,-877.2 -315.29,-660.4 -405.65,-983.4 -436.41,-1108.5 -41.96,-170.7 -50.19,-205.1 -91.65,-357.9 0,0 -53.68,-174.3 -62.55,-344.8 -2.11,-40.4 1.67,-72.9 13.09,-104.7 10.55,-29.4 24.99,-51.1 39.28,-69.8 60.65,-79.7 133.81,-127.6 136.74,-129.5 123.55,-80.9 242.98,-168.2 369.5,-244.4 57.39,-34.5 148.15,-89.4 262.1,-159.2 6.69,-4.1 11.15,-11.3 11.49,-19.1 0.44,-10.4 1.87,-22 4.99,-34.4 v 0 c 2.36,-9.3 6.95,-17.7 13.28,-24.8 14.39,-16.1 30.99,-33.2 50,-50.3 22.58,-20.5 44.66,-37.6 65.15,-51.9 8.06,-5.6 17.41,-8.9 27.22,-9.6 19.81,-1.3 45.67,-3.4 75.65,-6.7 79.41,-9 137.61,-22.2 156.02,-25.1 100.28,-15.9 199.95,-31.1 298.98,-45.7 17.68,-2.6 26.47,-22.9 16.22,-37.5 -29.74,-42.5 -62.7,-86.6 -99.17,-131.8 -41.04,-50.7 -81.76,-96.9 -121.11,-138.5 -40.98,-41.1 -96.72,-108.6 -134.2,-205.1 -12.06,-31.1 -51.54,-140.6 -34.91,-279.3 6.93,-57.8 13.15,-104.2 50.19,-146.2 48,-54.5 115.44,-65.1 140.74,-67.7 59.64,-5.8 119.29,-11.6 178.93,-17.4 1361.26,-125.9 2722.51,-251.7 4083.77,-377.5 33.3,-3.8 82.04,-6.3 139.66,2.1 74.88,11 127.74,34.9 184.38,61.1 34.91,16.2 92.49,51.4 206.21,121.1 97.83,60.1 117.75,73.5 144.02,95 51.39,41.9 85.01,69.3 115.65,117.8 60.37,95.6 58.98,193.9 56.73,229.1 -2.11,33 -8.2,61.3 -14.67,83.5 -3.63,12.5 -12.06,22.8 -21.98,30.9 -3.3,2.7 -7.27,5.1 -11.35,7.8 -73.83,48.9 -151.5,60.2 -192.03,69.8 -33.65,8 -118.13,28.3 -384.41,53.9 -57.84,5.5 -114.32,9.8 -169.32,12.9 -15.15,0.9 -25.71,15.3 -21.91,30 1.51,5.9 3.02,11.7 4.53,17.5 2.84,11 12.89,18.5 24.21,18 83.78,-3.4 168.99,-6.1 255.59,-7.9 125.8,-2.6 248.77,-3.2 368.78,-2.2 47.1,1.3 105.83,3.3 157.11,28.4 103.2,50.5 129.83,166 144.01,220.4 26.17,100.5 12.35,172.2 4.37,259.7 -15.69,171.9 1.46,299.3 25.82,478.2 26.55,194.9 66.94,346.8 102.92,473.1 35.34,124.1 67.77,216.6 81.46,255.4 198.27,560.7 744.93,1942.2 933.93,2425 105.2,268.6 157.7,402.9 174.6,449.5 124.9,345.5 250.2,750.3 448.8,1171 32.4,68.7 89,185.1 205.1,299 130.2,127.8 267,185.6 325.1,207.3 68,25.3 265.8,96.3 495.3,41.4 92.3,-22 163.6,-58.2 259.7,-106.9 122.3,-62 158.9,-97.5 242.2,-146.2 184.2,-107.6 355.4,-138.3 508.4,-165.8 112.9,-20.3 266.6,-37.7 449.6,-28.4 1383,39.3 2766.1,78.6 4149.2,117.8 10.9,0.6 25.1,0.1 42.5,1.5 18.3,1.5 86.4,15.6 125.1,73.5 24.4,36.3 25.3,73 26.2,108.3 1.6,60 -15.3,107 -26.9,133.1 -109,262 -173,487.8 -211.6,650.3 -27.5,115.4 -184.8,803.9 -38.6,1541.3 28.2,142.2 69.4,295 178.9,449.5 131.5,185.5 294.8,279.4 352.1,309.9 109.3,58 201.6,80.9 276.4,98.9 v 0 c 44.2,10.6 89.5,16 135,16 h 552.7 c 338.6,6.5 677.2,13.1 1015.8,19.6 507.3,10.2 1014.6,20.4 1521.9,30.6 173.2,4.2 346.3,8.3 519.4,11.9 124,2.8 248,5.3 372,7.7 26.8,1.1 75.1,6.8 125.5,36 23.1,13.4 69.6,37.4 93.8,92.7 16.1,36.8 20.8,70.7 22.1,95.3 0.7,12.7 11.3,22.6 24,22.6 h 350.6 c 12.9,0 23.4,-10.2 23.9,-23.1 4.7,-108 37.5,-183.7 67.1,-191.9 1.9,-0.5 3.8,-0.9 5.6,-1.3 16.6,-3.7 33.7,-3.2 50.3,0.1 6.8,1.4 15,3.2 26,5.6 19,4.2 32.7,7.9 36,8.7 45.2,11.8 116.3,12.8 136.4,13.1 48,0.8 95.9,3.7 144,3.3 55.8,-0.5 134.9,0.1 240.6,4.1 26.6,1 53.2,1.3 79.8,1.9 21.5,0.4 49,3.7 78.9,14.7 54.2,20.1 86,54.5 104.7,75.3 47,52.2 64.2,105.5 82.9,163.7 10.5,32.4 22.6,78.1 29.2,134.6 1.4,12.2 11.7,21.3 23.9,21.3 h 50.6 c 9.2,0.2 23.8,-0.6 39.2,7.7 12.9,6.9 21.6,17 30.6,32.8 22.7,39 27.3,76.3 27.3,76.3 10.8,86.9 40.7,171.2 45.8,258.6 14.9,254.1 28.3,188.8 39.7,432.4 v 1048.3 c 0,8 4,15.6 10.8,20 42.1,27.5 63.9,66.4 75,86.7 25,46 30.5,88.1 32,104.8 28.2,315.7 31.3,477.2 31.3,477.2 -0.7,178.2 2.6,271.7 5,349.1 0,0 10.3,318.8 -39.2,491.7"
         style="fill:#1d1d1b;fill-opacity:1;fill-rule:nonzero;stroke:none"
         id="path14" />
    </g>
  </g>
</svg>
